<svg width="679" height="168" viewBox="0 0 679 168" fill="none" xmlns="http://www.w3.org/2000/svg">
<path d="M90.8829 17.8209C92.4621 31.286 98.0143 58.2661 107.589 58.4656C119.558 58.7149 130.031 24.0547 130.031 20.3144C130.031 16.5741 106.638 3.27393 75.6725 4.03106M83.901 95.1206C63.2049 110.83 34.7585 99.7867 25.3034 85.1465C17.5735 73.1775 24.0567 54.9746 33.0333 50.7356C35.3777 49.6285 34.8926 41.0296 37.0167 31.5353M37.0167 31.5353C39.1582 21.9633 43.9518 11.4812 56.9711 6.84927C63.242 5.03398 69.5334 4.18117 75.6725 4.03106M37.0167 31.5353C34.5295 58.4656 16.3267 68.9385 17.3242 19.0676C17.4339 13.5819 42.7581 4.03105 75.6725 4.03106M115.07 58.4656L118.062 98.3623" stroke="#2A2424" stroke-width="6.49285" stroke-linecap="round"/>
<path d="M61.9142 64.6994C62.1636 61.7071 60.6674 56.4707 48.6986 55.4733C45.457 55.0611 34.7349 58.2162 34.7349 61.9565C34.7349 65.6968 37.7271 75.671 47.2025 76.1697C56.6778 76.6684 61.6649 67.6916 61.9142 64.6994Z" fill="#2A2424" stroke="#2A2424" stroke-width="6.49285" stroke-linecap="round"/>
<rect x="44.7144" y="36.7718" width="7.97926" height="11.969" rx="3.98963" fill="#A7A955"/>
<rect x="73.6343" y="38.2679" width="7.97926" height="11.969" rx="3.98963" fill="#A7A955"/>
<path d="M0.595703 70.9494C0.595703 65.3439 5.98949 61.3166 11.3643 62.9084L64.8857 78.759V166.97L6.71484 150.637C3.09637 149.621 0.595703 146.321 0.595703 142.563V70.9494ZM118.949 62.9084C124.324 61.3166 129.718 65.3439 129.718 70.9494V142.563C129.718 146.321 127.216 149.621 123.598 150.637L65.4268 166.97V78.759L118.949 62.9084Z" fill="#2A2424" stroke="#2A2424" stroke-width="0.541071"/>
<path d="M120.031 97.4014C119.319 125.233 139.961 121.394 139.961 103.16C139.961 84.9253 120.031 83.6457 120.031 97.4014Z" fill="white" stroke="#2A2424" stroke-width="6.49285"/>
<path d="M611.033 96.7075C611.033 90.7383 611.938 85.583 613.746 81.2418C615.555 76.8101 618.042 73.1472 621.208 70.253C624.464 67.3589 628.217 65.2335 632.468 63.8768C636.809 62.4298 641.467 61.7062 646.441 61.7062C648.25 61.7062 650.014 61.8871 651.732 62.2489C653.45 62.5202 654.852 62.882 655.937 63.3342V41.3567C656.842 41.0853 658.289 40.814 660.279 40.5427C662.268 40.1809 664.303 40 666.383 40C668.373 40 670.137 40.1357 671.674 40.407C673.302 40.6783 674.659 41.221 675.744 42.035C676.829 42.849 677.643 43.9795 678.186 45.4266C678.729 46.7832 679 48.5921 679 50.8531V115.158C679 119.409 677.01 122.8 673.031 125.333C670.408 127.051 667.017 128.543 662.856 129.809C658.696 131.166 653.903 131.844 648.476 131.844C642.597 131.844 637.306 131.03 632.603 129.402C627.991 127.774 624.057 125.423 620.801 122.348C617.635 119.273 615.194 115.61 613.475 111.359C611.847 107.018 611.033 102.134 611.033 96.7075ZM649.561 79.7495C644.677 79.7495 640.924 81.1513 638.301 83.9551C635.679 86.7588 634.367 91.0096 634.367 96.7075C634.367 102.315 635.588 106.566 638.03 109.46C640.472 112.264 643.999 113.665 648.612 113.665C650.24 113.665 651.687 113.439 652.953 112.987C654.31 112.444 655.35 111.857 656.073 111.223V81.3775C654.264 80.2921 652.094 79.7495 649.561 79.7495Z" fill="#A7A955"/>
<path d="M568.295 115.022C569.832 115.022 571.506 114.886 573.314 114.615C575.214 114.253 576.616 113.801 577.52 113.258V102.405L567.752 103.219C565.22 103.4 563.14 103.943 561.512 104.847C559.884 105.752 559.07 107.108 559.07 108.917C559.07 110.726 559.748 112.218 561.105 113.394C562.552 114.479 564.949 115.022 568.295 115.022ZM567.21 61.7063C572.093 61.7063 576.525 62.2037 580.505 63.1986C584.574 64.1934 588.011 65.731 590.815 67.8111C593.709 69.8009 595.925 72.3785 597.462 75.544C599 78.619 599.769 82.2819 599.769 86.5327V116.921C599.769 119.273 599.09 121.217 597.734 122.755C596.467 124.202 594.93 125.468 593.121 126.554C587.242 130.081 578.967 131.844 568.295 131.844C563.502 131.844 559.16 131.392 555.271 130.488C551.473 129.583 548.172 128.227 545.368 126.418C542.655 124.609 540.529 122.303 538.992 119.499C537.545 116.695 536.821 113.439 536.821 109.731C536.821 103.491 538.675 98.6972 542.383 95.3509C546.092 92.0045 551.835 89.9243 559.613 89.1103L577.384 87.211V86.2614C577.384 83.6386 576.209 81.7845 573.857 80.6992C571.596 79.5234 568.295 78.9356 563.954 78.9356C560.517 78.9356 557.171 79.2973 553.915 80.0209C550.659 80.7444 547.72 81.6488 545.097 82.7341C543.921 81.9202 542.926 80.6992 542.112 79.0712C541.298 77.3528 540.891 75.5892 540.891 73.7803C540.891 71.4288 541.434 69.5748 542.519 68.2181C543.695 66.7711 545.458 65.5501 547.81 64.5552C550.433 63.5603 553.508 62.8368 557.035 62.3846C560.653 61.9324 564.044 61.7063 567.21 61.7063Z" fill="#A7A955"/>
<path d="M525.534 129.538C524.539 129.719 523.047 129.945 521.057 130.216C519.158 130.578 517.214 130.759 515.224 130.759C513.234 130.759 511.425 130.623 509.797 130.352C508.26 130.081 506.949 129.538 505.863 128.724C504.778 127.91 503.919 126.825 503.286 125.468C502.743 124.021 502.472 122.167 502.472 119.906V41.221C503.467 41.0401 504.914 40.814 506.813 40.5427C508.803 40.1809 510.792 40 512.782 40C514.772 40 516.535 40.1357 518.073 40.407C519.701 40.6783 521.057 41.221 522.143 42.035C523.228 42.849 524.042 43.9795 524.585 45.4266C525.218 46.7832 525.534 48.5921 525.534 50.8531V129.538Z" fill="#A7A955"/>
<path d="M491.261 117.735C490.808 121.986 489.542 125.242 487.462 127.503C485.472 129.764 482.533 130.895 478.644 130.895C475.75 130.895 473.172 130.216 470.911 128.86C468.65 127.413 466.208 125.016 463.585 121.67L450.155 104.847V129.538C449.16 129.719 447.668 129.945 445.678 130.216C443.779 130.578 441.834 130.759 439.845 130.759C437.855 130.759 436.046 130.623 434.418 130.352C432.881 130.081 431.569 129.538 430.484 128.724C429.399 127.91 428.539 126.825 427.906 125.468C427.364 124.021 427.092 122.167 427.092 119.906V41.3567C428.087 41.0853 429.534 40.814 431.433 40.5427C433.423 40.1809 435.413 40 437.403 40C439.392 40 441.156 40.1357 442.693 40.407C444.321 40.6783 445.678 41.221 446.763 42.035C447.849 42.849 448.663 43.9795 449.205 45.4266C449.838 46.7832 450.155 48.5921 450.155 50.8531V86.6683L473.489 62.7915C478.192 62.7915 481.945 63.8316 484.749 65.9118C487.643 67.992 489.09 70.6148 489.09 73.7803C489.09 75.1369 488.864 76.4031 488.412 77.5789C487.959 78.6642 487.236 79.7947 486.241 80.9705C485.337 82.1462 484.116 83.4124 482.578 84.769C481.131 86.0352 479.413 87.5275 477.423 89.2459L469.555 96.0291L491.261 117.735Z" fill="#A7A955"/>
<path d="M415.552 96.7075C415.552 102.315 414.693 107.334 412.975 111.766C411.256 116.107 408.815 119.77 405.649 122.755C402.574 125.74 398.866 128.001 394.525 129.538C390.184 131.076 385.345 131.844 380.009 131.844C374.673 131.844 369.834 131.03 365.493 129.402C361.152 127.774 357.398 125.468 354.233 122.484C351.158 119.409 348.761 115.7 347.043 111.359C345.325 107.018 344.465 102.134 344.465 96.7075C344.465 91.3714 345.325 86.5327 347.043 82.1915C348.761 77.8502 351.158 74.1873 354.233 71.2027C357.398 68.1277 361.152 65.7762 365.493 64.1482C369.834 62.5203 374.673 61.7063 380.009 61.7063C385.345 61.7063 390.184 62.5655 394.525 64.2839C398.866 65.9118 402.574 68.2634 405.649 71.3384C408.815 74.323 411.256 77.9859 412.975 82.3272C414.693 86.6684 415.552 91.4618 415.552 96.7075ZM368.071 96.7075C368.071 102.224 369.111 106.475 371.191 109.46C373.361 112.354 376.346 113.801 380.145 113.801C383.943 113.801 386.837 112.309 388.827 109.324C390.907 106.34 391.947 102.134 391.947 96.7075C391.947 91.281 390.907 87.1206 388.827 84.2264C386.747 81.2418 383.807 79.7495 380.009 79.7495C376.21 79.7495 373.271 81.2418 371.191 84.2264C369.111 87.1206 368.071 91.281 368.071 96.7075Z" fill="#A7A955"/>
<path d="M336.067 96.7075C336.067 102.315 335.208 107.334 333.489 111.766C331.771 116.107 329.329 119.77 326.164 122.755C323.089 125.74 319.381 128.001 315.039 129.538C310.698 131.076 305.86 131.844 300.524 131.844C295.187 131.844 290.349 131.03 286.008 129.402C281.666 127.774 277.913 125.468 274.748 122.484C271.673 119.409 269.276 115.7 267.558 111.359C265.839 107.018 264.98 102.134 264.98 96.7075C264.98 91.3714 265.839 86.5327 267.558 82.1915C269.276 77.8502 271.673 74.1873 274.748 71.2027C277.913 68.1277 281.666 65.7762 286.008 64.1482C290.349 62.5203 295.187 61.7063 300.524 61.7063C305.86 61.7063 310.698 62.5655 315.039 64.2839C319.381 65.9118 323.089 68.2634 326.164 71.3384C329.329 74.323 331.771 77.9859 333.489 82.3272C335.208 86.6684 336.067 91.4618 336.067 96.7075ZM288.585 96.7075C288.585 102.224 289.625 106.475 291.705 109.46C293.876 112.354 296.861 113.801 300.659 113.801C304.458 113.801 307.352 112.309 309.342 109.324C311.422 106.34 312.462 102.134 312.462 96.7075C312.462 91.281 311.422 87.1206 309.342 84.2264C307.261 81.2418 304.322 79.7495 300.524 79.7495C296.725 79.7495 293.786 81.2418 291.705 84.2264C289.625 87.1206 288.585 91.281 288.585 96.7075Z" fill="#A7A955"/>
<path d="M209.063 112.716C210.329 113.078 211.957 113.349 213.946 113.53C215.936 113.62 217.835 113.665 219.644 113.665C223.262 113.665 226.247 112.942 228.598 111.495C231.04 109.957 232.261 107.606 232.261 104.44C232.261 101.456 231.266 99.3303 229.276 98.0641C227.287 96.7979 224.257 96.1648 220.187 96.1648H209.063V112.716ZM209.063 79.6139H218.966C222.855 79.6139 225.659 78.8903 227.377 77.4432C229.186 75.9962 230.09 73.8708 230.09 71.067C230.09 68.6251 229.05 66.6806 226.97 65.2335C224.98 63.7864 221.951 63.0629 217.881 63.0629C216.524 63.0629 214.941 63.1081 213.132 63.1985C211.414 63.289 210.057 63.4247 209.063 63.6055V79.6139ZM217.881 131.844C216.343 131.844 214.534 131.799 212.454 131.709C210.374 131.618 208.203 131.437 205.942 131.166C203.772 130.895 201.601 130.533 199.431 130.081C197.26 129.719 195.27 129.176 193.461 128.453C188.487 126.554 186 123.252 186 118.549V55.1944C186 53.2951 186.497 51.848 187.492 50.8532C188.578 49.7678 190.025 48.9086 191.833 48.2755C194.908 47.1902 198.752 46.4215 203.365 45.9693C207.977 45.4266 212.725 45.1553 217.609 45.1553C229.186 45.1553 238.094 47.0998 244.335 50.9888C250.575 54.8778 253.696 60.8923 253.696 69.0321C253.696 73.102 252.52 76.6293 250.168 79.6139C247.817 82.508 244.651 84.6334 240.672 85.9901C245.194 87.2562 248.947 89.5625 251.932 92.9089C255.007 96.2553 256.544 100.461 256.544 105.526C256.544 114.479 253.198 121.127 246.505 125.468C239.903 129.719 230.362 131.844 217.881 131.844Z" fill="#A7A955"/>
</svg>
