<svg width="88" height="88" viewBox="0 0 88 88" fill="none" xmlns="http://www.w3.org/2000/svg">
<path d="M78.8151 43.9187L86.7238 51.6468C89.1307 53.8794 87.9273 57.8293 84.8326 58.688L74.1731 61.4357L77.0959 72.0833C77.9555 75.1745 75.2047 77.9223 72.11 77.0636L61.4506 74.1441L58.6997 84.7917C57.8401 88.0547 53.8858 89.0851 51.6507 86.6808L44.086 78.781L36.3493 86.6808C34.1142 88.9134 30.1599 88.0547 29.3003 84.7917L26.5494 74.1441L15.89 77.0636C12.7953 77.9223 10.0445 75.1745 10.9041 72.0833L13.8269 61.4357L3.16742 58.688C0.0727414 57.8293 -1.13074 53.8794 1.27623 51.6468L9.18485 43.9187L1.27623 36.1906C-1.13074 33.9581 0.0727414 30.0082 3.16742 29.3212L13.8269 26.5735L10.9041 15.9259C10.0445 12.8346 12.7953 9.91515 15.89 10.7738L26.5494 13.8651L29.3003 3.04574C29.988 -0.0454986 34.1142 -1.07591 36.3493 1.32838L44.086 9.2282L51.6507 1.32838C53.8858 -1.07591 58.012 0.126237 58.6997 3.04574L61.4506 13.8651L72.11 10.7738C75.2047 9.91515 77.9555 12.8346 77.0959 15.9259L74.1731 26.5735L84.8326 29.3212C87.9273 30.0082 89.1307 33.9581 86.7238 36.1906L78.8151 43.9187Z" fill="#FECDD5"/>
<path d="M61.5078 57.1484C62.1406 57.8516 62.1406 58.9062 61.4375 59.5391L59.4688 61.5078C58.8359 62.2109 57.7812 62.2109 57.0781 61.5078L50.1172 54.5469C49.7656 54.1953 49.625 53.7734 49.625 53.3516V52.1562C47.0938 54.125 44 55.25 40.625 55.25C32.5391 55.25 26 48.7109 26 40.625C26 32.6094 32.5391 26 40.625 26C48.6406 26 55.25 32.6094 55.25 40.625C55.25 44.0703 54.0547 47.1641 52.1562 49.625H53.2812C53.7031 49.625 54.125 49.8359 54.4766 50.1172L61.5078 57.1484ZM40.625 49.625C45.5469 49.625 49.625 45.6172 49.625 40.625C49.625 35.7031 45.5469 31.625 40.625 31.625C35.6328 31.625 31.625 35.7031 31.625 40.625C31.625 45.6172 35.6328 49.625 40.625 49.625Z" fill="#BC1444"/>
</svg>
