<svg width="47" height="55" viewBox="0 0 47 55" fill="none" xmlns="http://www.w3.org/2000/svg">
<path d="M7.94267 19.4434L6.22949 31.903L37.2224 25.5174L36.7552 20.0664L38.4683 17.1072L41.8947 6.82808L34.1075 3.09021L21.0251 2.15575L13.8609 5.89362L11.5248 13.6808L7.94267 19.4434Z" fill="white"/>
<path d="M41.7989 7.25756C41.7989 8.232 39.5932 15.7185 36.7102 18.5089L37.8103 30.657L26.9328 31.365C20.2632 36.4276 11.096 32.8687 8.04898 28.1507C5.55793 24.2935 7.64721 18.4273 10.54 17.0612C11.06 16.8157 11.1481 15.4265 11.3756 13.5866C9.7781 20.0662 5.19236 21.1154 5.47757 6.85577C5.51293 5.0879 13.674 2.01001 24.2811 2.01001C34.2601 1.76601 41.7989 6.05218 41.7989 7.25756Z" fill="white"/>
<path d="M29.1828 6.45398C29.6917 10.7933 31.481 19.4881 34.5667 19.5524C38.4238 19.6327 41.7989 8.46293 41.7989 7.25756C41.7989 6.05218 34.2601 1.76601 24.2811 2.01001M11.8238 10.8737C12.5139 7.78893 14.0587 4.41092 18.2543 2.91822C20.2752 2.33322 22.3027 2.05838 24.2811 2.01001M11.8238 10.8737C11.1392 13.9333 11.2956 16.7045 10.54 17.0612C7.64721 18.4273 5.55793 24.2935 8.04898 28.1507C11.096 32.8687 20.2632 36.4276 26.9328 31.365L37.8103 30.657L36.7102 18.5089M11.8238 10.8737C11.0222 19.5524 5.15612 22.9274 5.47757 6.85577C5.51293 5.0879 13.674 2.01001 24.2811 2.01001" stroke="#2A2424" stroke-width="3" stroke-linecap="round"/>
<path d="M19.8478 21.5613C19.9281 20.597 19.446 18.9095 15.5888 18.588C14.5442 18.4552 11.0889 19.472 11.0889 20.6774C11.0889 21.8827 12.0531 25.0971 15.1067 25.2578C18.1603 25.4185 19.7674 22.5256 19.8478 21.5613Z" fill="#2A2424"/>
<rect x="14.3057" y="12.5612" width="2.57142" height="3.85719" rx="1.28571" fill="#A7A955"/>
<rect x="23.625" y="13.0433" width="2.57142" height="3.85719" rx="1.28571" fill="#A7A955"/>
<path d="M0.270508 31.4323C0.270508 25.9142 5.49696 21.9247 10.7871 23.32L11.0391 23.3913L20.6221 26.2292V54.277L6.38965 50.2819C2.77121 49.2658 0.270695 45.9661 0.270508 42.2077V31.4323ZM30.7471 23.3913C36.1218 21.7995 41.5146 25.8268 41.5146 31.4323V42.2077C41.5145 45.9662 39.0141 49.2659 35.3955 50.2819L21.1631 54.277V26.2292L30.7471 23.3913Z" fill="#2A2424" stroke="#2A2424" stroke-width="0.541071"/>
<path d="M38.5771 32.1C38.3477 41.069 44.9998 39.8319 44.9998 33.9557C44.9998 28.0794 38.5771 27.667 38.5771 32.1Z" fill="white" stroke="#2A2424" stroke-width="3"/>
</svg>
