<svg width="88" height="88" viewBox="0 0 88 88" fill="none" xmlns="http://www.w3.org/2000/svg">
<path d="M78.8151 43.9187L86.7238 51.6468C89.1307 53.8794 87.9273 57.8293 84.8326 58.688L74.1731 61.4357L77.0959 72.0833C77.9555 75.1745 75.2047 77.9223 72.11 77.0636L61.4506 74.1441L58.6997 84.7917C57.8401 88.0547 53.8858 89.0851 51.6507 86.6808L44.086 78.781L36.3493 86.6808C34.1142 88.9134 30.1599 88.0547 29.3003 84.7917L26.5494 74.1441L15.89 77.0636C12.7953 77.9223 10.0445 75.1745 10.9041 72.0833L13.8269 61.4357L3.16742 58.688C0.0727414 57.8293 -1.13074 53.8794 1.27623 51.6468L9.18485 43.9187L1.27623 36.1906C-1.13074 33.9581 0.0727414 30.0082 3.16742 29.3212L13.8269 26.5735L10.9041 15.9259C10.0445 12.8346 12.7953 9.91515 15.89 10.7738L26.5494 13.8651L29.3003 3.04574C29.988 -0.0454986 34.1142 -1.07591 36.3493 1.32838L44.086 9.2282L51.6507 1.32838C53.8858 -1.07591 58.012 0.126237 58.6997 3.04574L61.4506 13.8651L72.11 10.7738C75.2047 9.91515 77.9555 12.8346 77.0959 15.9259L74.1731 26.5735L84.8326 29.3212C87.9273 30.0082 89.1307 33.9581 86.7238 36.1906L78.8151 43.9187Z" fill="#DEDDB8"/>
<path d="M59.5 40.625C60.6953 40.625 61.75 41.6797 61.75 42.875V45.125C61.75 46.3906 60.6953 47.375 59.5 47.375H49.375V57.5C49.375 58.7656 48.3203 59.75 47.125 59.75H44.875C43.6094 59.75 42.625 58.7656 42.625 57.5V47.375H32.5C31.2344 47.375 30.25 46.3906 30.25 45.125V42.875C30.25 41.6797 31.2344 40.625 32.5 40.625H42.625V30.5C42.625 29.3047 43.6094 28.25 44.875 28.25H47.125C48.3203 28.25 49.375 29.3047 49.375 30.5V40.625H59.5Z" fill="#747739"/>
</svg>
