<svg width="180" height="219" viewBox="0 0 180 219" fill="none" xmlns="http://www.w3.org/2000/svg">
<path d="M114.719 18.299C116.353 32.2299 122.097 60.1434 132.004 60.3498C144.387 60.6078 155.222 24.7485 155.222 20.8788C155.222 17.0091 131.019 3.24881 98.9825 4.03214M107.496 98.273C86.0836 114.526 56.653 103.1 46.8709 87.9537C38.8736 75.5707 45.581 56.7381 54.8682 52.3524C57.2937 51.207 56.7919 42.3106 58.9894 32.4879M58.9894 32.4879C61.205 22.5847 66.1644 11.74 79.6341 6.94784C86.122 5.06975 92.631 4.18744 98.9825 4.03214M58.9894 32.4879C56.4161 60.3498 37.5836 71.185 38.6156 19.5889C38.7291 13.9133 64.9294 4.03213 98.9825 4.03214M139.743 60.3498L142.839 101.627" stroke="#2A2424" stroke-width="6.49285" stroke-linecap="round"/>
<path d="M84.7481 66.7993C85.006 63.7035 83.4582 58.286 71.0752 57.254C67.7215 56.8276 56.6284 60.0918 56.6284 63.9615C56.6284 67.8312 59.7242 78.1505 69.5273 78.6664C79.3305 79.1824 84.4901 69.8951 84.7481 66.7993Z" fill="#2A2424" stroke="#2A2424" stroke-width="6.49285" stroke-linecap="round"/>
<rect x="66.9531" y="37.9055" width="8.25531" height="12.3831" rx="4.12766" fill="#A7A955"/>
<rect x="96.8735" y="39.4533" width="8.25531" height="12.3831" rx="4.12766" fill="#A7A955"/>
<path d="M144.139 64.8235C149.513 63.2318 154.906 67.259 154.906 72.8645V147.583C154.906 151.224 152.56 154.435 149.123 155.556L148.787 155.658L88.1025 172.696L27.418 155.658C23.7994 154.642 21.2988 151.342 21.2988 147.583V72.8645C21.2988 67.3465 26.5253 63.357 31.8154 64.7522L32.0674 64.8235L88.0264 81.3958L88.1025 81.4182L88.1797 81.3958L144.139 64.8235Z" fill="#2A2424" stroke="#2A2424" stroke-width="0.541071"/>
<path d="M144.876 100.633C144.14 129.427 165.496 125.455 165.496 106.59C165.496 87.7249 144.876 86.4011 144.876 100.633Z" fill="white" stroke="#2A2424" stroke-width="6.49285"/>
<path d="M155.184 206.088C155.184 203.908 155.514 202.026 156.175 200.441C156.835 198.823 157.743 197.485 158.899 196.429C160.088 195.372 161.458 194.596 163.01 194.101C164.595 193.572 166.296 193.308 168.112 193.308C168.772 193.308 169.416 193.374 170.044 193.506C170.671 193.605 171.183 193.738 171.579 193.903V185.878C171.909 185.779 172.438 185.68 173.164 185.581C173.891 185.449 174.634 185.383 175.393 185.383C176.12 185.383 176.763 185.433 177.325 185.532C177.919 185.631 178.415 185.829 178.811 186.126C179.207 186.423 179.504 186.836 179.702 187.364C179.9 187.86 180 188.52 180 189.346V212.824C180 214.376 179.273 215.614 177.82 216.539C176.863 217.166 175.624 217.711 174.105 218.173C172.586 218.669 170.836 218.916 168.855 218.916C166.708 218.916 164.777 218.619 163.06 218.025C161.376 217.43 159.939 216.572 158.75 215.449C157.595 214.326 156.703 212.989 156.076 211.437C155.481 209.852 155.184 208.069 155.184 206.088ZM169.251 199.896C167.468 199.896 166.098 200.408 165.14 201.432C164.182 202.455 163.704 204.007 163.704 206.088C163.704 208.135 164.149 209.687 165.041 210.744C165.932 211.767 167.22 212.279 168.904 212.279C169.499 212.279 170.027 212.197 170.489 212.031C170.985 211.833 171.364 211.619 171.629 211.388V200.49C170.968 200.094 170.176 199.896 169.251 199.896Z" fill="#A7A955"/>
<path d="M139.58 212.774C140.142 212.774 140.753 212.725 141.413 212.626C142.106 212.494 142.618 212.329 142.948 212.131V208.168L139.382 208.465C138.458 208.531 137.698 208.729 137.104 209.06C136.509 209.39 136.212 209.885 136.212 210.545C136.212 211.206 136.46 211.751 136.955 212.18C137.483 212.576 138.358 212.774 139.58 212.774ZM139.184 193.308C140.967 193.308 142.585 193.49 144.038 193.853C145.524 194.216 146.779 194.778 147.803 195.537C148.859 196.264 149.668 197.205 150.23 198.361C150.791 199.483 151.072 200.821 151.072 202.373V213.468C151.072 214.326 150.824 215.036 150.329 215.598C149.866 216.126 149.305 216.588 148.645 216.985C146.498 218.273 143.477 218.916 139.58 218.916C137.83 218.916 136.245 218.751 134.825 218.421C133.438 218.091 132.233 217.596 131.209 216.935C130.219 216.275 129.443 215.433 128.881 214.409C128.353 213.385 128.089 212.197 128.089 210.843C128.089 208.564 128.766 206.814 130.12 205.592C131.474 204.37 133.57 203.611 136.41 203.314L142.899 202.62V202.274C142.899 201.316 142.47 200.639 141.611 200.243C140.786 199.813 139.58 199.599 137.995 199.599C136.74 199.599 135.519 199.731 134.33 199.995C133.141 200.259 132.068 200.59 131.11 200.986C130.681 200.689 130.318 200.243 130.021 199.648C129.723 199.021 129.575 198.377 129.575 197.717C129.575 196.858 129.773 196.181 130.169 195.686C130.598 195.157 131.242 194.712 132.101 194.348C133.059 193.985 134.181 193.721 135.469 193.556C136.79 193.391 138.028 193.308 139.184 193.308Z" fill="#A7A955"/>
<path d="M123.968 218.074C123.605 218.14 123.06 218.223 122.334 218.322C121.64 218.454 120.93 218.52 120.204 218.52C119.477 218.52 118.817 218.471 118.223 218.372C117.661 218.273 117.182 218.074 116.786 217.777C116.39 217.48 116.076 217.084 115.845 216.588C115.647 216.06 115.548 215.383 115.548 214.558V185.829C115.911 185.763 116.439 185.68 117.133 185.581C117.859 185.449 118.586 185.383 119.312 185.383C120.039 185.383 120.683 185.433 121.244 185.532C121.838 185.631 122.334 185.829 122.73 186.126C123.126 186.423 123.423 186.836 123.622 187.364C123.853 187.86 123.968 188.52 123.968 189.346V218.074Z" fill="#A7A955"/>
<path d="M111.454 213.765C111.289 215.317 110.827 216.506 110.067 217.331C109.341 218.157 108.267 218.57 106.847 218.57C105.791 218.57 104.85 218.322 104.024 217.827C103.199 217.298 102.307 216.423 101.349 215.202L96.4458 209.06V218.074C96.0826 218.14 95.5377 218.223 94.8113 218.322C94.1178 218.454 93.4079 218.52 92.6814 218.52C91.9549 218.52 91.2945 218.471 90.7001 218.372C90.1387 218.273 89.6599 218.074 89.2637 217.777C88.8674 217.48 88.5537 217.084 88.3226 216.588C88.1244 216.06 88.0254 215.383 88.0254 214.558V185.878C88.3886 185.779 88.917 185.68 89.6104 185.581C90.3369 185.449 91.0633 185.383 91.7898 185.383C92.5163 185.383 93.1602 185.433 93.7216 185.532C94.3159 185.631 94.8113 185.829 95.2075 186.126C95.6038 186.423 95.901 186.836 96.0991 187.364C96.3302 187.86 96.4458 188.52 96.4458 189.346V202.422L104.965 193.705C106.682 193.705 108.053 194.084 109.076 194.844C110.133 195.603 110.661 196.561 110.661 197.717C110.661 198.212 110.579 198.674 110.414 199.104C110.249 199.5 109.985 199.913 109.621 200.342C109.291 200.771 108.845 201.233 108.284 201.729C107.756 202.191 107.128 202.736 106.402 203.363L103.529 205.84L111.454 213.765Z" fill="#A7A955"/>
<path d="M83.8126 206.088C83.8126 208.135 83.4989 209.968 82.8715 211.586C82.2441 213.171 81.3525 214.508 80.1968 215.598C79.0741 216.687 77.7202 217.513 76.1352 218.074C74.5501 218.636 72.7835 218.916 70.8353 218.916C68.887 218.916 67.1204 218.619 65.5354 218.025C63.9503 217.43 62.5799 216.588 61.4242 215.499C60.3015 214.376 59.4264 213.022 58.799 211.437C58.1716 209.852 57.8579 208.069 57.8579 206.088C57.8579 204.139 58.1716 202.373 58.799 200.788C59.4264 199.203 60.3015 197.865 61.4242 196.776C62.5799 195.653 63.9503 194.794 65.5354 194.2C67.1204 193.605 68.887 193.308 70.8353 193.308C72.7835 193.308 74.5501 193.622 76.1352 194.249C77.7202 194.844 79.0741 195.702 80.1968 196.825C81.3525 197.915 82.2441 199.252 82.8715 200.837C83.4989 202.422 83.8126 204.172 83.8126 206.088ZM66.4765 206.088C66.4765 208.102 66.8562 209.654 67.6157 210.744C68.4082 211.8 69.4979 212.329 70.8848 212.329C72.2717 212.329 73.3284 211.784 74.0548 210.694C74.8143 209.604 75.1941 208.069 75.1941 206.088C75.1941 204.106 74.8143 202.587 74.0548 201.531C73.2953 200.441 72.2222 199.896 70.8353 199.896C69.4484 199.896 68.3752 200.441 67.6157 201.531C66.8562 202.587 66.4765 204.106 66.4765 206.088Z" fill="#A7A955"/>
<path d="M54.7911 206.088C54.7911 208.135 54.4774 209.968 53.85 211.586C53.2226 213.171 52.331 214.508 51.1753 215.598C50.0526 216.687 48.6987 217.513 47.1137 218.074C45.5287 218.636 43.762 218.916 41.8138 218.916C39.8655 218.916 38.0989 218.619 36.5139 218.025C34.9288 217.43 33.5585 216.588 32.4027 215.499C31.28 214.376 30.4049 213.022 29.7775 211.437C29.1501 209.852 28.8364 208.069 28.8364 206.088C28.8364 204.139 29.1501 202.373 29.7775 200.788C30.4049 199.203 31.28 197.865 32.4027 196.776C33.5585 195.653 34.9288 194.794 36.5139 194.2C38.0989 193.605 39.8655 193.308 41.8138 193.308C43.762 193.308 45.5287 193.622 47.1137 194.249C48.6987 194.844 50.0526 195.702 51.1753 196.825C52.331 197.915 53.2226 199.252 53.85 200.837C54.4774 202.422 54.7911 204.172 54.7911 206.088ZM37.455 206.088C37.455 208.102 37.8347 209.654 38.5942 210.744C39.3867 211.8 40.4764 212.329 41.8633 212.329C43.2502 212.329 44.3069 211.784 45.0333 210.694C45.7928 209.604 46.1726 208.069 46.1726 206.088C46.1726 204.106 45.7928 202.587 45.0333 201.531C44.2739 200.441 43.2007 199.896 41.8138 199.896C40.4269 199.896 39.3537 200.441 38.5942 201.531C37.8347 202.587 37.455 204.106 37.455 206.088Z" fill="#A7A955"/>
<path d="M8.42042 211.932C8.88271 212.064 9.4771 212.164 10.2036 212.23C10.93 212.263 11.6235 212.279 12.2839 212.279C13.6048 212.279 14.6945 212.015 15.553 211.487C16.4446 210.925 16.8904 210.067 16.8904 208.911C16.8904 207.821 16.5271 207.045 15.8007 206.583C15.0742 206.121 13.968 205.889 12.482 205.889H8.42042V211.932ZM8.42042 199.847H12.0362C13.4562 199.847 14.4798 199.582 15.1072 199.054C15.7676 198.526 16.0979 197.75 16.0979 196.726C16.0979 195.834 15.7181 195.124 14.9586 194.596C14.2322 194.068 13.1259 193.804 11.64 193.804C11.1447 193.804 10.5668 193.82 9.90637 193.853C9.27897 193.886 8.78365 193.936 8.42042 194.002V199.847ZM11.64 218.916C11.0786 218.916 10.4182 218.9 9.65871 218.867C8.89923 218.834 8.10672 218.768 7.28118 218.669C6.48867 218.57 5.69616 218.438 4.90365 218.273C4.11114 218.14 3.38468 217.942 2.72425 217.678C0.908084 216.985 0 215.779 0 214.062V190.931C0 190.237 0.181617 189.709 0.54485 189.346C0.941105 188.949 1.46945 188.636 2.12987 188.405C3.25259 188.008 4.65599 187.728 6.34008 187.563C8.02416 187.364 9.75778 187.265 11.5409 187.265C15.7676 187.265 19.0202 187.975 21.2987 189.395C23.5772 190.815 24.7164 193.011 24.7164 195.983C24.7164 197.469 24.2871 198.757 23.4286 199.847C22.57 200.903 21.4143 201.679 19.9613 202.175C21.6124 202.637 22.9828 203.479 24.0725 204.701C25.1952 205.922 25.7566 207.458 25.7566 209.307C25.7566 212.576 24.5348 215.003 22.0912 216.588C19.6807 218.14 16.1969 218.916 11.64 218.916Z" fill="#A7A955"/>
</svg>
